<svg width="472" height="87" viewBox="0 0 472 87" fill="none" xmlns="http://www.w3.org/2000/svg">
<g clip-path="url(#clip0)">
<path d="M116.696 41.396C114.632 41.396 112.784 41.108 111.152 40.532V35.096C112.808 35.672 114.608 35.96 116.552 35.96C117.368 35.96 117.938 35.864 118.262 35.672C118.586 35.48 118.748 35.204 118.748 34.844C118.748 34.616 118.682 34.442 118.55 34.322C118.43 34.19 118.22 34.088 117.92 34.016L115.04 33.332C113.576 32.996 112.448 32.348 111.656 31.388C110.864 30.428 110.468 29.12 110.468 27.464C110.468 26.12 110.798 24.956 111.458 23.972C112.13 22.988 113.12 22.226 114.428 21.686C115.748 21.146 117.356 20.876 119.252 20.876C120.872 20.876 122.42 21.056 123.896 21.416V26.852C122.564 26.492 121.148 26.312 119.648 26.312C117.704 26.312 116.732 26.708 116.732 27.5C116.732 27.704 116.798 27.866 116.93 27.986C117.074 28.094 117.296 28.184 117.596 28.256L120.476 28.94C121.964 29.3 123.092 29.936 123.86 30.848C124.628 31.748 125.012 33.032 125.012 34.7C125.012 36.068 124.67 37.256 123.986 38.264C123.314 39.272 122.348 40.046 121.088 40.586C119.84 41.126 118.376 41.396 116.696 41.396ZM134.62 26.6V32.54C134.62 33.296 134.692 33.884 134.836 34.304C134.992 34.712 135.244 35.006 135.592 35.186C135.94 35.366 136.432 35.456 137.068 35.456C137.392 35.456 137.812 35.426 138.328 35.366L138.76 35.312V40.928C138.256 41.06 137.68 41.162 137.032 41.234C136.396 41.318 135.772 41.36 135.16 41.36C132.7 41.36 130.834 40.718 129.562 39.434C128.302 38.15 127.672 36.116 127.672 33.332V26.6H125.152V21.2H127.672L128.968 14.36H134.62V21.2H138.76V26.6H134.62ZM156.569 33.188H146.903C146.963 33.884 147.125 34.424 147.389 34.808C147.665 35.192 148.091 35.468 148.667 35.636C149.255 35.804 150.065 35.888 151.097 35.888C152.381 35.888 153.881 35.684 155.597 35.276V40.748C154.589 40.976 153.665 41.138 152.825 41.234C151.985 41.342 151.109 41.396 150.197 41.396C147.737 41.396 145.751 41.036 144.239 40.316C142.727 39.596 141.617 38.48 140.909 36.968C140.213 35.444 139.865 33.452 139.865 30.992C139.865 28.868 140.195 27.05 140.855 25.538C141.527 24.026 142.511 22.874 143.807 22.082C145.115 21.278 146.705 20.876 148.577 20.876C151.217 20.876 153.209 21.764 154.553 23.54C155.897 25.316 156.569 27.872 156.569 31.208V33.188ZM148.541 25.34C148.133 25.34 147.815 25.442 147.587 25.646C147.359 25.85 147.185 26.222 147.065 26.762C146.957 27.302 146.897 28.076 146.885 29.084H150.125C150.125 28.076 150.071 27.302 149.963 26.762C149.855 26.222 149.687 25.85 149.459 25.646C149.243 25.442 148.937 25.34 148.541 25.34ZM169.646 17.132C168.422 17.132 167.552 17.36 167.036 17.816C166.52 18.26 166.262 18.98 166.262 19.976V21.2H170.402V26.6H166.262V41H159.422V26.6H156.902V21.2H159.422V20.444C159.422 17.588 160.184 15.392 161.708 13.856C163.244 12.32 165.518 11.552 168.53 11.552C169.49 11.552 170.366 11.624 171.158 11.768V17.24C170.582 17.168 170.078 17.132 169.646 17.132ZM177.866 20.876C179.942 20.876 181.604 21.152 182.852 21.704C184.112 22.244 185.042 23.132 185.642 24.368C186.242 25.604 186.542 27.272 186.542 29.372V41H180.926L180.422 38.984H180.134C179.378 40.592 177.974 41.396 175.922 41.396C174.818 41.396 173.834 41.156 172.97 40.676C172.118 40.184 171.452 39.494 170.972 38.606C170.504 37.706 170.27 36.668 170.27 35.492C170.27 33.476 170.888 31.928 172.124 30.848C173.36 29.756 175.358 29.12 178.118 28.94L179.81 28.832C179.786 28.22 179.672 27.74 179.468 27.392C179.264 27.044 178.922 26.792 178.442 26.636C177.974 26.468 177.314 26.384 176.462 26.384C175.742 26.384 174.968 26.438 174.14 26.546C173.324 26.654 172.55 26.816 171.818 27.032V21.56C172.706 21.344 173.69 21.176 174.77 21.056C175.85 20.936 176.882 20.876 177.866 20.876ZM178.478 36.32C178.982 36.32 179.426 36.176 179.81 35.888V32.738L178.982 32.792C178.334 32.828 177.842 33.014 177.506 33.35C177.17 33.674 177.002 34.124 177.002 34.7C177.002 35.228 177.134 35.63 177.398 35.906C177.674 36.182 178.034 36.32 178.478 36.32ZM189.275 21.2H195.035L195.539 23.216H195.827C196.991 21.656 198.575 20.876 200.579 20.876C202.319 20.876 203.705 21.47 204.737 22.658C205.781 23.834 206.303 25.7 206.303 28.256V41H199.355V28.796C199.355 28.148 199.229 27.692 198.977 27.428C198.737 27.164 198.395 27.032 197.951 27.032C197.615 27.032 197.291 27.098 196.979 27.23C196.679 27.362 196.427 27.536 196.223 27.752V41H189.275V21.2ZM209.033 21.2H214.793L215.297 23.216H215.585C216.749 21.656 218.333 20.876 220.337 20.876C222.077 20.876 223.463 21.47 224.495 22.658C225.539 23.834 226.061 25.7 226.061 28.256V41H219.113V28.796C219.113 28.148 218.987 27.692 218.735 27.428C218.495 27.164 218.153 27.032 217.709 27.032C217.373 27.032 217.049 27.098 216.737 27.23C216.437 27.362 216.185 27.536 215.981 27.752V41H209.033V21.2ZM228.791 41V21.2H235.775V41H228.791ZM232.283 19.22C230.855 19.22 229.793 18.896 229.097 18.248C228.413 17.6 228.071 16.676 228.071 15.476C228.071 14.276 228.413 13.352 229.097 12.704C229.793 12.056 230.855 11.732 232.283 11.732C233.711 11.732 234.767 12.056 235.451 12.704C236.147 13.352 236.495 14.276 236.495 15.476C236.495 16.676 236.147 17.6 235.451 18.248C234.767 18.896 233.711 19.22 232.283 19.22ZM254.619 33.188H244.953C245.013 33.884 245.175 34.424 245.439 34.808C245.715 35.192 246.141 35.468 246.717 35.636C247.305 35.804 248.115 35.888 249.147 35.888C250.431 35.888 251.931 35.684 253.647 35.276V40.748C252.639 40.976 251.715 41.138 250.875 41.234C250.035 41.342 249.159 41.396 248.247 41.396C245.787 41.396 243.801 41.036 242.289 40.316C240.777 39.596 239.667 38.48 238.959 36.968C238.263 35.444 237.915 33.452 237.915 30.992C237.915 28.868 238.245 27.05 238.905 25.538C239.577 24.026 240.561 22.874 241.857 22.082C243.165 21.278 244.755 20.876 246.627 20.876C249.267 20.876 251.259 21.764 252.603 23.54C253.947 25.316 254.619 27.872 254.619 31.208V33.188ZM246.591 25.34C246.183 25.34 245.865 25.442 245.637 25.646C245.409 25.85 245.235 26.222 245.115 26.762C245.007 27.302 244.947 28.076 244.935 29.084H248.175C248.175 28.076 248.121 27.302 248.013 26.762C247.905 26.222 247.737 25.85 247.509 25.646C247.293 25.442 246.987 25.34 246.591 25.34ZM262.144 41.36C260.428 41.36 259.054 40.778 258.022 39.614C257.002 38.438 256.492 36.584 256.492 34.052V21.2H263.44V33.404C263.44 34.604 263.884 35.204 264.772 35.204C265.048 35.204 265.342 35.138 265.654 35.006C265.978 34.874 266.236 34.7 266.428 34.484V21.2H273.376V41H267.616L267.112 38.984H266.824C266.212 39.776 265.522 40.37 264.754 40.766C263.986 41.162 263.116 41.36 262.144 41.36ZM297.925 21.2H304.045L299.617 41H292.237L289.519 28.508L286.693 41H279.313L274.849 21.2H281.221L283.435 32.846L285.937 21.2H293.317L295.639 32.468L297.925 21.2ZM321.205 33.188H311.539C311.599 33.884 311.761 34.424 312.025 34.808C312.301 35.192 312.727 35.468 313.303 35.636C313.891 35.804 314.701 35.888 315.733 35.888C317.017 35.888 318.517 35.684 320.233 35.276V40.748C319.225 40.976 318.301 41.138 317.461 41.234C316.621 41.342 315.745 41.396 314.833 41.396C312.373 41.396 310.387 41.036 308.875 40.316C307.363 39.596 306.253 38.48 305.545 36.968C304.849 35.444 304.501 33.452 304.501 30.992C304.501 28.868 304.831 27.05 305.491 25.538C306.163 24.026 307.147 22.874 308.443 22.082C309.751 21.278 311.341 20.876 313.213 20.876C315.853 20.876 317.845 21.764 319.189 23.54C320.533 25.316 321.205 27.872 321.205 31.208V33.188ZM313.177 25.34C312.769 25.34 312.451 25.442 312.223 25.646C311.995 25.85 311.821 26.222 311.701 26.762C311.593 27.302 311.533 28.076 311.521 29.084H314.761C314.761 28.076 314.707 27.302 314.599 26.762C314.491 26.222 314.323 25.85 314.095 25.646C313.879 25.442 313.573 25.34 313.177 25.34ZM323.15 21.2H328.91L329.414 23.216H329.702C330.866 21.656 332.45 20.876 334.454 20.876C336.194 20.876 337.58 21.47 338.612 22.658C339.656 23.834 340.178 25.7 340.178 28.256V41H333.23V28.796C333.23 28.148 333.104 27.692 332.852 27.428C332.612 27.164 332.27 27.032 331.826 27.032C331.49 27.032 331.166 27.098 330.854 27.23C330.554 27.362 330.302 27.536 330.098 27.752V41H323.15V21.2ZM342.908 11.912H349.856V23.216H350.18C350.636 22.448 351.218 21.866 351.926 21.47C352.634 21.074 353.528 20.876 354.608 20.876C355.616 20.876 356.516 21.122 357.308 21.614C358.112 22.106 358.748 22.904 359.216 24.008C359.696 25.112 359.936 26.528 359.936 28.256V41H352.988V28.904C352.988 28.22 352.862 27.74 352.61 27.464C352.37 27.176 352.028 27.032 351.584 27.032C351.272 27.032 350.954 27.098 350.63 27.23C350.306 27.362 350.048 27.536 349.856 27.752V41H342.908V11.912ZM368.246 41.36C366.53 41.36 365.156 40.778 364.124 39.614C363.104 38.438 362.594 36.584 362.594 34.052V21.2H369.542V33.404C369.542 34.604 369.986 35.204 370.874 35.204C371.15 35.204 371.444 35.138 371.756 35.006C372.08 34.874 372.338 34.7 372.53 34.484V21.2H379.478V41H373.718L373.214 38.984H372.926C372.314 39.776 371.624 40.37 370.856 40.766C370.088 41.162 369.218 41.36 368.246 41.36ZM382.283 41V21.2H389.267V41H382.283ZM385.775 19.22C384.347 19.22 383.285 18.896 382.589 18.248C381.905 17.6 381.563 16.676 381.563 15.476C381.563 14.276 381.905 13.352 382.589 12.704C383.285 12.056 384.347 11.732 385.775 11.732C387.203 11.732 388.259 12.056 388.943 12.704C389.639 13.352 389.987 14.276 389.987 15.476C389.987 16.676 389.639 17.6 388.943 18.248C388.259 18.896 387.203 19.22 385.775 19.22ZM397.384 41.396C395.32 41.396 393.472 41.108 391.84 40.532V35.096C393.496 35.672 395.296 35.96 397.24 35.96C398.056 35.96 398.626 35.864 398.95 35.672C399.274 35.48 399.436 35.204 399.436 34.844C399.436 34.616 399.37 34.442 399.238 34.322C399.118 34.19 398.908 34.088 398.608 34.016L395.728 33.332C394.264 32.996 393.136 32.348 392.344 31.388C391.552 30.428 391.156 29.12 391.156 27.464C391.156 26.12 391.486 24.956 392.146 23.972C392.818 22.988 393.808 22.226 395.116 21.686C396.436 21.146 398.044 20.876 399.939 20.876C401.56 20.876 403.108 21.056 404.584 21.416V26.852C403.252 26.492 401.836 26.312 400.336 26.312C398.392 26.312 397.42 26.708 397.42 27.5C397.42 27.704 397.486 27.866 397.618 27.986C397.762 28.094 397.984 28.184 398.284 28.256L401.164 28.94C402.652 29.3 403.78 29.936 404.548 30.848C405.316 31.748 405.7 33.032 405.7 34.7C405.7 36.068 405.358 37.256 404.674 38.264C404.002 39.272 403.036 40.046 401.776 40.586C400.528 41.126 399.064 41.396 397.384 41.396ZM411.087 41.36C410.223 41.36 409.455 41.186 408.783 40.838C408.111 40.478 407.589 39.974 407.217 39.326C406.845 38.666 406.659 37.892 406.659 37.004C406.659 36.116 406.839 35.348 407.199 34.7C407.571 34.04 408.087 33.536 408.747 33.188C409.419 32.828 410.199 32.648 411.087 32.648C411.963 32.648 412.737 32.828 413.409 33.188C414.081 33.548 414.597 34.058 414.957 34.718C415.329 35.378 415.515 36.14 415.515 37.004C415.515 37.868 415.323 38.63 414.939 39.29C414.567 39.95 414.045 40.46 413.373 40.82C412.713 41.18 411.951 41.36 411.087 41.36ZM423.388 41.396C422.116 41.396 420.946 41.036 419.878 40.316C418.822 39.596 417.97 38.498 417.322 37.022C416.686 35.534 416.368 33.692 416.368 31.496C416.368 28.028 417.214 25.4 418.906 23.612C420.598 21.812 423.256 20.912 426.88 20.912H427.168V11.912H434.116V41H428.248L427.78 38.84H427.492C427.12 39.656 426.586 40.286 425.89 40.73C425.206 41.174 424.372 41.396 423.388 41.396ZM425.8 35.6C426.316 35.6 426.772 35.48 427.168 35.24V26.24C426.784 26.192 426.496 26.168 426.304 26.168C425.644 26.168 425.11 26.306 424.702 26.582C424.294 26.858 423.982 27.338 423.766 28.022C423.562 28.706 423.46 29.66 423.46 30.884C423.46 32.132 423.55 33.104 423.73 33.8C423.922 34.484 424.186 34.958 424.522 35.222C424.858 35.474 425.284 35.6 425.8 35.6ZM452.936 33.188H443.27C443.33 33.884 443.492 34.424 443.756 34.808C444.032 35.192 444.458 35.468 445.034 35.636C445.622 35.804 446.432 35.888 447.464 35.888C448.748 35.888 450.248 35.684 451.964 35.276V40.748C450.956 40.976 450.032 41.138 449.192 41.234C448.352 41.342 447.476 41.396 446.564 41.396C444.104 41.396 442.118 41.036 440.606 40.316C439.094 39.596 437.984 38.48 437.276 36.968C436.58 35.444 436.232 33.452 436.232 30.992C436.232 28.868 436.562 27.05 437.222 25.538C437.894 24.026 438.878 22.874 440.174 22.082C441.482 21.278 443.072 20.876 444.944 20.876C447.584 20.876 449.576 21.764 450.92 23.54C452.264 25.316 452.936 27.872 452.936 31.208V33.188ZM444.908 25.34C444.5 25.34 444.182 25.442 443.954 25.646C443.726 25.85 443.552 26.222 443.432 26.762C443.324 27.302 443.264 28.076 443.252 29.084H446.492C446.492 28.076 446.438 27.302 446.33 26.762C446.222 26.222 446.054 25.85 445.826 25.646C445.61 25.442 445.304 25.34 444.908 25.34ZM465.401 21.2H472.241L467.093 41H458.093L452.945 21.2H460.073L462.737 34.052L465.401 21.2Z" fill="#141414"/>
<rect width="87" height="87" fill="#141414"/>
<rect x="21" y="41" width="25" height="25" fill="white"/>
<rect x="28.5" y="48.5" width="10" height="10" stroke="black" stroke-width="5"/>
<rect x="41" y="20" width="25" height="25" fill="white"/>
<rect x="48.5" y="27.5" width="10" height="10" stroke="black" stroke-width="5"/>
</g>
<defs>
<clipPath id="clip0">
<rect width="472" height="87" fill="white"/>
</clipPath>
</defs>
</svg>
